<?xml version="1.0" standalone="no"?><!DOCTYPE svg PUBLIC "-//W3C//DTD SVG 1.1//EN" "http://www.w3.org/Graphics/SVG/1.1/DTD/svg11.dtd"><svg class="icon" width="200px" height="200.00px" viewBox="0 0 1024 1024" version="1.1" xmlns="http://www.w3.org/2000/svg"><path d="M911.6 813.6H112.5c-60.8 0-110.3-49.4-110.3-110.1V320.7c0-60.7 49.5-110.2 110.3-110.2h799.1c60.7 0 110.2 49.4 110.2 110.2v383c-0.1 60.5-49.5 109.9-110.2 109.9zM112.5 255.7c-35.9 0-65.1 28.9-65.1 64.8v383c0 35.9 29.2 64.9 65.1 64.9h799.1c36 0 64.9-28.9 64.9-64.9V320.7c0-35.9-28.9-64.8-64.9-64.8l-799.1-0.2z"  /><path d="M140.3 576.3c14.1 20.4 31.7 34.7 52.6 42.8 19.8 7.8 37.8 8.8 54.3 2.4 16.6-6.2 28.2-18.5 35.5-36.7 7.4-18.6 6.9-35.2-1.3-50.2-8.2-15-24-27.1-47.4-36.4-11.3-4.4-26.7-9.6-46.5-15.4l57.8-145.5 140.6 55.9-12.5 32-107.2-42.6-32.3 81c11 3.6 19.1 6.5 24.8 8.8 30 12 50.6 28.8 61.5 51 10.9 21.9 10.9 46.5 0.3 73.3-11.2 27.8-28.9 46.6-53.9 56.3-24.8 10.2-53.2 8.8-85.2-4-26.8-10.6-45.4-22.4-55.8-35.9l14.7-36.8z"  /><path d="M380.2 610.3c23 13.4 47.7 18.3 74.1 14.5 21-2.8 37-10.4 47.8-22.3 10.9-12.1 15-26.7 12.7-44.1-5.3-38.8-35.6-54.3-90.8-46.7l-25.4 3.6-4.4-31.7 24.3-3.3c49-6.8 71-28.4 66.1-64.5-4.5-33.6-25.6-47.7-63.1-42.5C400 376.1 381 386.2 364 403l-5-36.4c18.5-14.3 41-23.2 67.7-27.1 26-3.5 47.8 0.4 65.3 12 17.7 11.6 27.9 28 31.1 49.7 5.4 40-11.4 68.4-50.5 85.4l0.1 0.9c22.3-0.7 40.6 4.5 55.4 16.1 14.7 11.4 23.2 27 25.9 46.7 3.7 27.2-2.9 50.7-20.6 70.4-17.5 19.7-42.6 31.6-75.6 36-28.8 4-52.8 1.9-72.2-6.6l-5.4-39.8z m356.5-259.2L616.2 645.6h-40.4l114.3-273.7H536.3v-34.4h200.4v13.6z"  /><path d="M896.2 528.6l-36 15.8 31.9 73.3-34.7 15.3-32.1-73.4-131.6 57.8-10.1-23.1L727 353.6l41.3-18.1 79.3 180.9 36-15.9 12.6 28.1z m-83 2.8l-52.1-118.2c-3.6-8.4-7.6-18.2-12-29.2l-0.7 0.1c0.4 5.4 0 14.2-1.3 26.4l-28.9 162.4 95-41.5z"  /></svg>